<svg width="24" height="24" viewBox="0 0 24 24" fill="none" xmlns="http://www.w3.org/2000/svg">
<path d="M8.75 7C8.55109 7 8.36032 7.07902 8.21967 7.21967C8.07902 7.36032 8 7.55109 8 7.75C8 7.94891 8.07902 8.13968 8.21967 8.28033C8.36032 8.42098 8.55109 8.5 8.75 8.5H16.25C16.4489 8.5 16.6397 8.42098 16.7803 8.28033C16.921 8.13968 17 7.94891 17 7.75C17 7.55109 16.921 7.36032 16.7803 7.21967C16.6397 7.07902 16.4489 7 16.25 7H8.75ZM7 11.75C7 11.5511 7.07902 11.3603 7.21967 11.2197C7.36032 11.079 7.55109 11 7.75 11H14.25C14.4489 11 14.6397 11.079 14.7803 11.2197C14.921 11.3603 15 11.5511 15 11.75C15 11.9489 14.921 12.1397 14.7803 12.2803C14.6397 12.421 14.4489 12.5 14.25 12.5H7.75C7.55109 12.5 7.36032 12.421 7.21967 12.2803C7.07902 12.1397 7 11.9489 7 11.75ZM9.75 15C9.55109 15 9.36032 15.079 9.21967 15.2197C9.07902 15.3603 9 15.5511 9 15.75C9 15.9489 9.07902 16.1397 9.21967 16.2803C9.36032 16.421 9.55109 16.5 9.75 16.5H16.25C16.4489 16.5 16.6397 16.421 16.7803 16.2803C16.921 16.1397 17 15.9489 17 15.75C17 15.5511 16.921 15.3603 16.7803 15.2197C16.6397 15.079 16.4489 15 16.25 15H9.75Z" fill="black"/>
<path d="M2 3.75C2 2.784 2.784 2 3.75 2H20.25C21.216 2 22 2.784 22 3.75V20.25C22 20.7141 21.8156 21.1592 21.4874 21.4874C21.1592 21.8156 20.7141 22 20.25 22H3.75C3.28587 22 2.84075 21.8156 2.51256 21.4874C2.18437 21.1592 2 20.7141 2 20.25V3.75ZM3.75 3.5C3.6837 3.5 3.62011 3.52634 3.57322 3.57322C3.52634 3.62011 3.5 3.6837 3.5 3.75V20.25C3.5 20.388 3.612 20.5 3.75 20.5H20.25C20.3163 20.5 20.3799 20.4737 20.4268 20.4268C20.4737 20.3799 20.5 20.3163 20.5 20.25V3.75C20.5 3.6837 20.4737 3.62011 20.4268 3.57322C20.3799 3.52634 20.3163 3.5 20.25 3.5H3.75Z" fill="black"/>
</svg>
