<svg width="21" height="21" viewBox="0 0 21 21" fill="none" xmlns="http://www.w3.org/2000/svg">
<g clip-path="url(#clip0_3_26)">
<path d="M17.0858 19.8333H3.91417C3.78394 19.8341 3.65484 19.8092 3.53423 19.7601C3.41362 19.711 3.30387 19.6386 3.21124 19.547C3.11861 19.4555 3.04492 19.3466 2.99438 19.2266C2.94384 19.1065 2.91743 18.9777 2.91667 18.8475V3.9025C2.92013 3.7582 2.95416 3.61628 3.0165 3.48609C3.07884 3.35591 3.16808 3.24042 3.27833 3.14726C3.38858 3.0541 3.51734 2.98537 3.6561 2.94563C3.79486 2.90588 3.94048 2.89601 4.08333 2.91667H5.25V4.08334H4.08333V18.6667H16.9167V4.08334H15.75V2.91667H17.0625C17.1947 2.91278 17.3263 2.93536 17.4496 2.98309C17.5729 3.03081 17.6854 3.10272 17.7806 3.19457C17.8757 3.28643 17.9515 3.39638 18.0035 3.51795C18.0555 3.63953 18.0826 3.77028 18.0833 3.9025V18.8475C18.0826 18.9777 18.0562 19.1065 18.0056 19.2266C17.9551 19.3466 17.8814 19.4555 17.7888 19.547C17.6961 19.6386 17.5864 19.711 17.4658 19.7601C17.3452 19.8092 17.2161 19.8341 17.0858 19.8333Z" fill="black"/>
<path d="M9.71833 15.0267L6.59167 11.9C6.49684 11.7877 6.44787 11.6438 6.45456 11.497C6.46125 11.3502 6.5231 11.2113 6.62775 11.1082C6.73239 11.005 6.87212 10.9451 7.01901 10.9405C7.16589 10.9359 7.30909 10.9869 7.42 11.0833L9.71833 13.3817L14.7583 8.34165C14.8699 8.24609 15.0135 8.19615 15.1603 8.20182C15.3071 8.20749 15.4464 8.26835 15.5502 8.37224C15.6541 8.47613 15.715 8.61539 15.7207 8.7622C15.7263 8.90902 15.6764 9.05256 15.5808 9.16415L9.71833 15.0267Z" fill="black"/>
<path d="M15.1667 6.41665H5.83333V4.27582C5.83487 3.91582 5.97856 3.571 6.23312 3.31644C6.48768 3.06188 6.8325 2.91819 7.1925 2.91665H8.23667C8.36517 2.41475 8.65707 1.96988 9.06635 1.6522C9.47562 1.33451 9.97898 1.16208 10.4971 1.16208C11.0152 1.16208 11.5185 1.33451 11.9278 1.6522C12.3371 1.96988 12.629 2.41475 12.7575 2.91665H13.8017C14.1627 2.91665 14.509 3.05966 14.7648 3.31439C15.0206 3.56912 15.1651 3.91481 15.1667 4.27582V6.41665ZM7 5.24999H14V4.27582C14 4.22477 13.9797 4.1758 13.9436 4.1397C13.9075 4.1036 13.8586 4.08332 13.8075 4.08332H11.6667V3.49999C11.6667 3.19057 11.5437 2.89382 11.325 2.67503C11.1062 2.45624 10.8094 2.33332 10.5 2.33332C10.1906 2.33332 9.89383 2.45624 9.67504 2.67503C9.45625 2.89382 9.33333 3.19057 9.33333 3.49999V4.08332H7.1925C7.16722 4.08332 7.14219 4.0883 7.11883 4.09797C7.09548 4.10765 7.07426 4.12183 7.05638 4.1397C7.03851 4.15758 7.02433 4.1788 7.01465 4.20215C7.00498 4.22551 7 4.25054 7 4.27582V5.24999Z" fill="black"/>
</g>
<defs>
<clipPath id="clip0_3_26">
<rect width="21" height="21" fill="white"/>
</clipPath>
</defs>
</svg>
