<svg width="18" height="19" viewBox="0 0 18 19" fill="none" xmlns="http://www.w3.org/2000/svg">
<path opacity="0.2" d="M16.6234 2.891V6.50478H0.722755V2.891C0.722755 2.69931 0.798903 2.51548 0.934446 2.37993C1.06999 2.24439 1.25382 2.16824 1.44551 2.16824H15.9006C16.0923 2.16824 16.2762 2.24439 16.4117 2.37993C16.5472 2.51548 16.6234 2.69931 16.6234 2.891Z" fill="black"/>
<path d="M15.9006 1.44551H13.7324V0.722756C13.7324 0.531069 13.6562 0.347233 13.5207 0.21169C13.3851 0.0761473 13.2013 0 13.0096 0C12.8179 0 12.6341 0.0761473 12.4985 0.21169C12.363 0.347233 12.2869 0.531069 12.2869 0.722756V1.44551H5.05929V0.722756C5.05929 0.531069 4.98315 0.347233 4.8476 0.21169C4.71206 0.0761473 4.52822 0 4.33654 0C4.14485 0 3.96101 0.0761473 3.82547 0.21169C3.68993 0.347233 3.61378 0.531069 3.61378 0.722756V1.44551H1.44551C1.06214 1.44551 0.694467 1.59781 0.423381 1.86889C0.152295 2.13998 0 2.50765 0 2.89103V17.3462C0 17.7295 0.152295 18.0972 0.423381 18.3683C0.694467 18.6394 1.06214 18.7917 1.44551 18.7917H15.9006C16.284 18.7917 16.6517 18.6394 16.9228 18.3683C17.1939 18.0972 17.3461 17.7295 17.3461 17.3462V2.89103C17.3461 2.50765 17.1939 2.13998 16.9228 1.86889C16.6517 1.59781 16.284 1.44551 15.9006 1.44551ZM3.61378 2.89103V3.61378C3.61378 3.80547 3.68993 3.9893 3.82547 4.12485C3.96101 4.26039 4.14485 4.33654 4.33654 4.33654C4.52822 4.33654 4.71206 4.26039 4.8476 4.12485C4.98315 3.9893 5.05929 3.80547 5.05929 3.61378V2.89103H12.2869V3.61378C12.2869 3.80547 12.363 3.9893 12.4985 4.12485C12.6341 4.26039 12.8179 4.33654 13.0096 4.33654C13.2013 4.33654 13.3851 4.26039 13.5207 4.12485C13.6562 3.9893 13.7324 3.80547 13.7324 3.61378V2.89103H15.9006V5.78205H1.44551V2.89103H3.61378ZM15.9006 17.3462H1.44551V7.22756H15.9006V17.3462ZM7.22756 9.39583V15.1779C7.22756 15.3696 7.15141 15.5534 7.01587 15.6889C6.88033 15.8245 6.69649 15.9006 6.50481 15.9006C6.31312 15.9006 6.12928 15.8245 5.99374 15.6889C5.8582 15.5534 5.78205 15.3696 5.78205 15.1779V10.5649L5.38273 10.7655C5.21117 10.8512 5.01256 10.8653 4.83059 10.8047C4.64863 10.744 4.49821 10.6136 4.41243 10.442C4.32665 10.2705 4.31253 10.0719 4.37319 9.88989C4.43384 9.70792 4.5643 9.5575 4.73586 9.47172L6.18137 8.74896C6.2916 8.6938 6.41411 8.66775 6.53725 8.67329C6.66039 8.67882 6.78006 8.71575 6.8849 8.78058C6.98974 8.8454 7.07626 8.93596 7.13624 9.04365C7.19621 9.15133 7.22765 9.27257 7.22756 9.39583ZM12.5723 12.1468L10.8413 14.4551H12.2869C12.4785 14.4551 12.6624 14.5313 12.7979 14.6668C12.9335 14.8024 13.0096 14.9862 13.0096 15.1779C13.0096 15.3696 12.9335 15.5534 12.7979 15.6889C12.6624 15.8245 12.4785 15.9006 12.2869 15.9006H9.39583C9.26161 15.9006 9.13003 15.8633 9.01585 15.7927C8.90168 15.7221 8.80941 15.6212 8.74938 15.5011C8.68935 15.3811 8.66394 15.2467 8.67599 15.113C8.68805 14.9793 8.73709 14.8516 8.81763 14.7442L11.4177 11.2777C11.4769 11.199 11.5193 11.109 11.5424 11.0133C11.5655 10.9175 11.5688 10.8181 11.5521 10.7211C11.5354 10.624 11.4991 10.5314 11.4453 10.4489C11.3915 10.3664 11.3215 10.2958 11.2394 10.2414C11.1574 10.1869 11.065 10.1498 10.9681 10.1323C10.8712 10.1149 10.7718 10.1174 10.6759 10.1397C10.58 10.1621 10.4896 10.2038 10.4104 10.2623C10.3312 10.3208 10.2648 10.3949 10.2153 10.48C10.1692 10.5648 10.1066 10.6395 10.0312 10.6998C9.9558 10.76 9.8691 10.8045 9.7762 10.8307C9.68331 10.8569 9.58611 10.8642 9.49034 10.8522C9.39457 10.8402 9.30217 10.8092 9.2186 10.7609C9.13502 10.7126 9.06196 10.6481 9.00373 10.5712C8.94549 10.4942 8.90327 10.4063 8.87953 10.3128C8.8558 10.2192 8.85105 10.1219 8.86555 10.0265C8.88006 9.93103 8.91353 9.83948 8.96398 9.75721C9.20273 9.34405 9.5711 9.02119 10.012 8.83868C10.4529 8.65616 10.9417 8.62418 11.4026 8.74769C11.8635 8.87121 12.2708 9.14332 12.5613 9.52184C12.8519 9.90037 13.0095 10.3642 13.0096 10.8413C13.0111 11.3127 12.8575 11.7715 12.5723 12.1468Z" fill="black"/>
</svg>
