<svg width="41" height="41" viewBox="0 0 41 41" fill="none" xmlns="http://www.w3.org/2000/svg">
<path fill-rule="evenodd" clip-rule="evenodd" d="M7.6875 34.5938C7.34769 34.5938 7.0218 34.4588 6.78152 34.2185C6.54124 33.9782 6.40625 33.6523 6.40625 33.3125V7.6875C6.40625 7.34769 6.54124 7.0218 6.78152 6.78152C7.0218 6.54124 7.34769 6.40625 7.6875 6.40625H31.3906C31.9003 6.40625 32.3892 6.20377 32.7496 5.84335C33.11 5.48292 33.3125 4.99409 33.3125 4.48438C33.3125 3.97466 33.11 3.48583 32.7496 3.1254C32.3892 2.76498 31.9003 2.5625 31.3906 2.5625H7.6875C6.32827 2.5625 5.0247 3.10245 4.06358 4.06358C3.10245 5.0247 2.5625 6.32827 2.5625 7.6875V33.3125C2.5625 34.6717 3.10245 35.9753 4.06358 36.9364C5.0247 37.8975 6.32827 38.4375 7.6875 38.4375H33.3125C34.6717 38.4375 35.9753 37.8975 36.9364 36.9364C37.8975 35.9753 38.4375 34.6717 38.4375 33.3125V24.9844C38.4375 24.4747 38.235 23.9858 37.8746 23.6254C37.5142 23.265 37.0253 23.0625 36.5156 23.0625C36.0059 23.0625 35.5171 23.265 35.1567 23.6254C34.7962 23.9858 34.5938 24.4747 34.5938 24.9844V33.3125C34.5938 33.6523 34.4588 33.9782 34.2185 34.2185C33.9782 34.4588 33.6523 34.5938 33.3125 34.5938H7.6875ZM40.4363 11.9925C40.7757 11.6282 40.9606 11.1463 40.9518 10.6484C40.943 10.1505 40.7413 9.67546 40.3892 9.32334C40.037 8.97122 39.562 8.76952 39.0641 8.76074C38.5662 8.75195 38.0843 8.93677 37.72 9.27625L23.4776 23.5161L18.6781 18.5551C18.503 18.3721 18.2934 18.2255 18.0615 18.1238C17.8295 18.0221 17.5798 17.9672 17.3265 17.9623C17.0733 17.9575 16.8216 18.0027 16.5859 18.0954C16.3503 18.1882 16.1352 18.3266 15.9532 18.5027C15.7712 18.6788 15.6258 18.8891 15.5253 19.1216C15.4249 19.3541 15.3714 19.6042 15.3679 19.8574C15.3644 20.1106 15.411 20.3621 15.505 20.5973C15.599 20.8324 15.7386 21.0467 15.9157 21.2278L22.0734 27.593C22.2506 27.7768 22.4626 27.9234 22.697 28.0243C22.9315 28.1252 23.1837 28.1784 23.4389 28.1808C23.6942 28.1832 23.9474 28.1347 24.1837 28.0382C24.42 27.9417 24.6347 27.799 24.8153 27.6186L40.4363 11.9925Z" fill="black"/>
</svg>
