<svg width="19" height="19" viewBox="0 0 19 19" fill="none" xmlns="http://www.w3.org/2000/svg">
<g clip-path="url(#clip0_3_17)">
<path d="M17.2188 19H1.78125C0.795625 19 0 18.2044 0 17.2188V2.96875C0 1.98313 0.795625 1.1875 1.78125 1.1875H17.2188C18.2044 1.1875 19 1.98313 19 2.96875V17.2188C19 18.2044 18.2044 19 17.2188 19ZM1.78125 2.375C1.44875 2.375 1.1875 2.63625 1.1875 2.96875V17.2188C1.1875 17.5513 1.44875 17.8125 1.78125 17.8125H17.2188C17.5513 17.8125 17.8125 17.5513 17.8125 17.2188V2.96875C17.8125 2.63625 17.5513 2.375 17.2188 2.375H1.78125Z" fill="black"/>
<path d="M5.34375 4.75C5.01125 4.75 4.75 4.48875 4.75 4.15625V0.59375C4.75 0.26125 5.01125 0 5.34375 0C5.67625 0 5.9375 0.26125 5.9375 0.59375V4.15625C5.9375 4.48875 5.67625 4.75 5.34375 4.75ZM13.6562 4.75C13.3237 4.75 13.0625 4.48875 13.0625 4.15625V0.59375C13.0625 0.26125 13.3237 0 13.6562 0C13.9888 0 14.25 0.26125 14.25 0.59375V4.15625C14.25 4.48875 13.9888 4.75 13.6562 4.75ZM18.4062 7.125H0.59375C0.26125 7.125 0 6.86375 0 6.53125C0 6.19875 0.26125 5.9375 0.59375 5.9375H18.4062C18.7388 5.9375 19 6.19875 19 6.53125C19 6.86375 18.7388 7.125 18.4062 7.125Z" fill="black"/>
<path d="M4.75 11.875C5.40584 11.875 5.9375 11.3433 5.9375 10.6875C5.9375 10.0317 5.40584 9.5 4.75 9.5C4.09416 9.5 3.5625 10.0317 3.5625 10.6875C3.5625 11.3433 4.09416 11.875 4.75 11.875Z" fill="black"/>
<path d="M9.5 11.875C10.1558 11.875 10.6875 11.3433 10.6875 10.6875C10.6875 10.0317 10.1558 9.5 9.5 9.5C8.84416 9.5 8.3125 10.0317 8.3125 10.6875C8.3125 11.3433 8.84416 11.875 9.5 11.875Z" fill="black"/>
<path d="M14.25 11.875C14.9058 11.875 15.4375 11.3433 15.4375 10.6875C15.4375 10.0317 14.9058 9.5 14.25 9.5C13.5942 9.5 13.0625 10.0317 13.0625 10.6875C13.0625 11.3433 13.5942 11.875 14.25 11.875Z" fill="black"/>
<path d="M4.75 15.4375C5.40584 15.4375 5.9375 14.9058 5.9375 14.25C5.9375 13.5942 5.40584 13.0625 4.75 13.0625C4.09416 13.0625 3.5625 13.5942 3.5625 14.25C3.5625 14.9058 4.09416 15.4375 4.75 15.4375Z" fill="black"/>
<path d="M9.5 15.4375C10.1558 15.4375 10.6875 14.9058 10.6875 14.25C10.6875 13.5942 10.1558 13.0625 9.5 13.0625C8.84416 13.0625 8.3125 13.5942 8.3125 14.25C8.3125 14.9058 8.84416 15.4375 9.5 15.4375Z" fill="black"/>
<path d="M14.25 15.4375C14.9058 15.4375 15.4375 14.9058 15.4375 14.25C15.4375 13.5942 14.9058 13.0625 14.25 13.0625C13.5942 13.0625 13.0625 13.5942 13.0625 14.25C13.0625 14.9058 13.5942 15.4375 14.25 15.4375Z" fill="black"/>
</g>
<defs>
<clipPath id="clip0_3_17">
<rect width="19" height="19" fill="white"/>
</clipPath>
</defs>
</svg>
